<mxfile host="app.diagrams.net" modified="2023-05-24T00:03:00.570Z" agent="Mozilla/5.0 (Windows NT 10.0; Win64; x64) AppleWebKit/537.36 (KHTML, like Gecko) Chrome/113.0.0.0 Safari/537.36" etag="DJClOOrTmujhy62FrjVp" version="21.3.3" type="google">
  <diagram id="6a731a19-8d31-9384-78a2-239565b7b9f0" name="Page-1">
    <mxGraphModel grid="1" page="1" gridSize="10" guides="1" tooltips="1" connect="1" arrows="1" fold="1" pageScale="1" pageWidth="1169" pageHeight="827" background="none" math="0" shadow="0">
      <root>
        <mxCell id="0" />
        <mxCell id="1" parent="0" />
        <mxCell id="1750" value="" style="edgeStyle=none;rounded=1;jumpStyle=none;html=1;shadow=0;labelBackgroundColor=none;startArrow=none;startFill=0;jettySize=auto;orthogonalLoop=1;strokeColor=#E85642;strokeWidth=3;fontFamily=Helvetica;fontSize=14;fontColor=#FFFFFF;spacing=5;fontStyle=1;fillColor=#b0e3e6;" edge="1" parent="1">
          <mxGeometry relative="1" as="geometry">
            <mxPoint x="176.6412213740457" y="316.5" as="targetPoint" />
          </mxGeometry>
        </mxCell>
        <mxCell id="1751" value="" style="edgeStyle=none;rounded=1;jumpStyle=none;html=1;shadow=0;labelBackgroundColor=none;startArrow=none;startFill=0;jettySize=auto;orthogonalLoop=1;strokeColor=#E85642;strokeWidth=3;fontFamily=Helvetica;fontSize=14;fontColor=#FFFFFF;spacing=5;fontStyle=1;fillColor=#b0e3e6;" edge="1" parent="1">
          <mxGeometry relative="1" as="geometry">
            <mxPoint x="213" y="415.5" as="sourcePoint" />
          </mxGeometry>
        </mxCell>
        <mxCell id="1758" value="" style="edgeStyle=none;rounded=0;jumpStyle=none;html=1;shadow=0;labelBackgroundColor=none;startArrow=none;startFill=0;endArrow=classic;endFill=1;jettySize=auto;orthogonalLoop=1;strokeColor=#1699D3;strokeWidth=3;fontFamily=Helvetica;fontSize=14;fontColor=#FFFFFF;spacing=5;" edge="1" parent="1">
          <mxGeometry relative="1" as="geometry">
            <mxPoint x="570" y="632.5" as="sourcePoint" />
          </mxGeometry>
        </mxCell>
        <mxCell id="OQ7BvtPJ9knDdihIJFCK-1809" value="" style="group" connectable="0" vertex="1" parent="1">
          <mxGeometry x="-260" y="140" width="275" height="440" as="geometry" />
        </mxCell>
        <mxCell id="OQ7BvtPJ9knDdihIJFCK-1805" value="" style="group" connectable="0" vertex="1" parent="OQ7BvtPJ9knDdihIJFCK-1809">
          <mxGeometry y="60" width="275" height="380" as="geometry" />
        </mxCell>
        <mxCell id="OQ7BvtPJ9knDdihIJFCK-1779" value="ContainerDatabase&lt;br&gt;(CDB)" style="rounded=1;whiteSpace=wrap;html=1;shadow=0;labelBackgroundColor=none;strokeColor=none;strokeWidth=3;fillColor=#2F5B7C;fontFamily=Helvetica;fontSize=16;fontColor=#FFFFFF;align=center;fontStyle=1;spacing=5;arcSize=7;perimeterSpacing=2;" vertex="1" parent="OQ7BvtPJ9knDdihIJFCK-1805">
          <mxGeometry x="50" width="200" height="60" as="geometry" />
        </mxCell>
        <mxCell id="OQ7BvtPJ9knDdihIJFCK-1780" value="" style="edgeStyle=none;rounded=0;jumpStyle=none;html=1;shadow=0;labelBackgroundColor=none;startArrow=none;startFill=0;endArrow=classic;endFill=1;jettySize=auto;orthogonalLoop=1;strokeColor=#2F5B7C;strokeWidth=3;fontFamily=Helvetica;fontSize=16;fontColor=#23445D;spacing=5;" edge="1" parent="OQ7BvtPJ9knDdihIJFCK-1805">
          <mxGeometry relative="1" as="geometry">
            <mxPoint x="120" y="70" as="sourcePoint" />
            <mxPoint x="50" y="210" as="targetPoint" />
          </mxGeometry>
        </mxCell>
        <mxCell id="OQ7BvtPJ9knDdihIJFCK-1781" value="Pluggable DB&lt;br&gt;(PDB1)" style="shape=cylinder3;whiteSpace=wrap;html=1;boundedLbl=1;backgroundOutline=1;size=15;fillColor=#fad9d5;strokeColor=#ae4132;" vertex="1" parent="OQ7BvtPJ9knDdihIJFCK-1805">
          <mxGeometry y="220" width="75" height="120" as="geometry" />
        </mxCell>
        <mxCell id="OQ7BvtPJ9knDdihIJFCK-1782" value="Pluggable DB&lt;br&gt;(PDB2)" style="shape=cylinder3;whiteSpace=wrap;html=1;boundedLbl=1;backgroundOutline=1;size=15;fillColor=#fad9d5;strokeColor=#ae4132;" vertex="1" parent="OQ7BvtPJ9knDdihIJFCK-1805">
          <mxGeometry x="100" y="220" width="75" height="120" as="geometry" />
        </mxCell>
        <mxCell id="OQ7BvtPJ9knDdihIJFCK-1783" value="Pluggable DB&lt;br&gt;(PDB3)" style="shape=cylinder3;whiteSpace=wrap;html=1;boundedLbl=1;backgroundOutline=1;size=15;fillColor=#fad9d5;strokeColor=#ae4132;" vertex="1" parent="OQ7BvtPJ9knDdihIJFCK-1805">
          <mxGeometry x="200" y="220" width="75" height="120" as="geometry" />
        </mxCell>
        <mxCell id="OQ7BvtPJ9knDdihIJFCK-1784" value="" style="edgeStyle=none;rounded=0;jumpStyle=none;html=1;shadow=0;labelBackgroundColor=none;startArrow=none;startFill=0;endArrow=classic;endFill=1;jettySize=auto;orthogonalLoop=1;strokeColor=#2F5B7C;strokeWidth=3;fontFamily=Helvetica;fontSize=16;fontColor=#23445D;spacing=5;" edge="1" parent="OQ7BvtPJ9knDdihIJFCK-1805">
          <mxGeometry relative="1" as="geometry">
            <mxPoint x="140" y="70" as="sourcePoint" />
            <mxPoint x="140" y="210" as="targetPoint" />
          </mxGeometry>
        </mxCell>
        <mxCell id="OQ7BvtPJ9knDdihIJFCK-1785" value="" style="edgeStyle=none;rounded=0;jumpStyle=none;html=1;shadow=0;labelBackgroundColor=none;startArrow=none;startFill=0;endArrow=classic;endFill=1;jettySize=auto;orthogonalLoop=1;strokeColor=#2F5B7C;strokeWidth=3;fontFamily=Helvetica;fontSize=16;fontColor=#23445D;spacing=5;" edge="1" parent="OQ7BvtPJ9knDdihIJFCK-1805">
          <mxGeometry relative="1" as="geometry">
            <mxPoint x="170" y="70" as="sourcePoint" />
            <mxPoint x="230" y="210" as="targetPoint" />
          </mxGeometry>
        </mxCell>
        <mxCell id="OQ7BvtPJ9knDdihIJFCK-1787" value="&lt;b&gt;TenantA&lt;/b&gt;" style="text;html=1;align=center;verticalAlign=middle;resizable=0;points=[];autosize=1;strokeColor=none;fillColor=none;" vertex="1" parent="OQ7BvtPJ9knDdihIJFCK-1805">
          <mxGeometry y="350" width="70" height="30" as="geometry" />
        </mxCell>
        <mxCell id="OQ7BvtPJ9knDdihIJFCK-1788" value="&lt;b&gt;TenantB&lt;/b&gt;" style="text;html=1;align=center;verticalAlign=middle;resizable=0;points=[];autosize=1;strokeColor=none;fillColor=none;" vertex="1" parent="OQ7BvtPJ9knDdihIJFCK-1805">
          <mxGeometry x="105" y="350" width="70" height="30" as="geometry" />
        </mxCell>
        <mxCell id="OQ7BvtPJ9knDdihIJFCK-1789" value="&lt;b&gt;TenantC&lt;/b&gt;" style="text;html=1;align=center;verticalAlign=middle;resizable=0;points=[];autosize=1;strokeColor=none;fillColor=none;" vertex="1" parent="OQ7BvtPJ9knDdihIJFCK-1805">
          <mxGeometry x="202.5" y="350" width="70" height="30" as="geometry" />
        </mxCell>
        <mxCell id="OQ7BvtPJ9knDdihIJFCK-1807" value="&lt;font style=&quot;font-size: 16px;&quot;&gt;Multi-tenant Database&lt;/font&gt;" style="text;html=1;align=center;verticalAlign=middle;resizable=0;points=[];autosize=1;strokeColor=none;fillColor=none;fontStyle=1" vertex="1" parent="OQ7BvtPJ9knDdihIJFCK-1809">
          <mxGeometry x="50" width="190" height="30" as="geometry" />
        </mxCell>
        <mxCell id="OQ7BvtPJ9knDdihIJFCK-1814" value="" style="group" connectable="0" vertex="1" parent="1">
          <mxGeometry x="-1040" y="130" width="647.5" height="470" as="geometry" />
        </mxCell>
        <mxCell id="OQ7BvtPJ9knDdihIJFCK-1803" value="&lt;font style=&quot;font-size: 16px;&quot;&gt;Single-tenant Database&lt;/font&gt;" style="text;html=1;align=center;verticalAlign=middle;resizable=0;points=[];autosize=1;strokeColor=none;fillColor=none;fontStyle=1" vertex="1" parent="OQ7BvtPJ9knDdihIJFCK-1814">
          <mxGeometry x="223.75" width="200" height="30" as="geometry" />
        </mxCell>
        <mxCell id="OQ7BvtPJ9knDdihIJFCK-1802" value="" style="rounded=1;whiteSpace=wrap;html=1;arcSize=6;" vertex="1" parent="OQ7BvtPJ9knDdihIJFCK-1814">
          <mxGeometry y="50" width="647.5" height="420" as="geometry" />
        </mxCell>
        <mxCell id="OQ7BvtPJ9knDdihIJFCK-1791" value="" style="edgeStyle=none;rounded=0;jumpStyle=none;html=1;shadow=0;labelBackgroundColor=none;startArrow=none;startFill=0;endArrow=classic;endFill=1;jettySize=auto;orthogonalLoop=1;strokeColor=#2F5B7C;strokeWidth=3;fontFamily=Helvetica;fontSize=16;fontColor=#23445D;spacing=5;" edge="1" parent="OQ7BvtPJ9knDdihIJFCK-1814">
          <mxGeometry relative="1" as="geometry">
            <mxPoint x="138.75" y="160" as="sourcePoint" />
            <mxPoint x="138.75" y="280" as="targetPoint" />
          </mxGeometry>
        </mxCell>
        <mxCell id="OQ7BvtPJ9knDdihIJFCK-1792" value="DB1" style="shape=cylinder3;whiteSpace=wrap;html=1;boundedLbl=1;backgroundOutline=1;size=15;fillColor=#fad9d5;strokeColor=#ae4132;" vertex="1" parent="OQ7BvtPJ9knDdihIJFCK-1814">
          <mxGeometry x="98.75" y="294" width="75" height="120" as="geometry" />
        </mxCell>
        <mxCell id="OQ7BvtPJ9knDdihIJFCK-1793" value="ContainerDatabase&lt;br&gt;(CDB)" style="rounded=1;whiteSpace=wrap;html=1;shadow=0;labelBackgroundColor=none;strokeColor=none;strokeWidth=3;fillColor=#2F5B7C;fontFamily=Helvetica;fontSize=16;fontColor=#FFFFFF;align=center;fontStyle=1;spacing=5;arcSize=7;perimeterSpacing=2;" vertex="1" parent="OQ7BvtPJ9knDdihIJFCK-1814">
          <mxGeometry x="58.75" y="90" width="170" height="60" as="geometry" />
        </mxCell>
        <mxCell id="OQ7BvtPJ9knDdihIJFCK-1795" value="" style="edgeStyle=none;rounded=0;jumpStyle=none;html=1;shadow=0;labelBackgroundColor=none;startArrow=none;startFill=0;endArrow=classic;endFill=1;jettySize=auto;orthogonalLoop=1;strokeColor=#2F5B7C;strokeWidth=3;fontFamily=Helvetica;fontSize=16;fontColor=#23445D;spacing=5;" edge="1" parent="OQ7BvtPJ9knDdihIJFCK-1814">
          <mxGeometry relative="1" as="geometry">
            <mxPoint x="318.75" y="160" as="sourcePoint" />
            <mxPoint x="318.75" y="280" as="targetPoint" />
          </mxGeometry>
        </mxCell>
        <mxCell id="OQ7BvtPJ9knDdihIJFCK-1796" value="DB2" style="shape=cylinder3;whiteSpace=wrap;html=1;boundedLbl=1;backgroundOutline=1;size=15;fillColor=#fad9d5;strokeColor=#ae4132;" vertex="1" parent="OQ7BvtPJ9knDdihIJFCK-1814">
          <mxGeometry x="278.75" y="294" width="75" height="120" as="geometry" />
        </mxCell>
        <mxCell id="OQ7BvtPJ9knDdihIJFCK-1797" value="ContainerDatabase&lt;br&gt;(CDB)" style="rounded=1;whiteSpace=wrap;html=1;shadow=0;labelBackgroundColor=none;strokeColor=none;strokeWidth=3;fillColor=#2F5B7C;fontFamily=Helvetica;fontSize=16;fontColor=#FFFFFF;align=center;fontStyle=1;spacing=5;arcSize=7;perimeterSpacing=2;" vertex="1" parent="OQ7BvtPJ9knDdihIJFCK-1814">
          <mxGeometry x="238.75" y="90" width="170" height="60" as="geometry" />
        </mxCell>
        <mxCell id="OQ7BvtPJ9knDdihIJFCK-1798" value="" style="edgeStyle=none;rounded=0;jumpStyle=none;html=1;shadow=0;labelBackgroundColor=none;startArrow=none;startFill=0;endArrow=classic;endFill=1;jettySize=auto;orthogonalLoop=1;strokeColor=#2F5B7C;strokeWidth=3;fontFamily=Helvetica;fontSize=16;fontColor=#23445D;spacing=5;" edge="1" parent="OQ7BvtPJ9knDdihIJFCK-1814">
          <mxGeometry relative="1" as="geometry">
            <mxPoint x="498.75" y="160" as="sourcePoint" />
            <mxPoint x="498.75" y="280" as="targetPoint" />
          </mxGeometry>
        </mxCell>
        <mxCell id="OQ7BvtPJ9knDdihIJFCK-1799" value="DB3" style="shape=cylinder3;whiteSpace=wrap;html=1;boundedLbl=1;backgroundOutline=1;size=15;fillColor=#fad9d5;strokeColor=#ae4132;" vertex="1" parent="OQ7BvtPJ9knDdihIJFCK-1814">
          <mxGeometry x="458.75" y="300" width="75" height="120" as="geometry" />
        </mxCell>
        <mxCell id="OQ7BvtPJ9knDdihIJFCK-1800" value="ContainerDatabase&lt;br&gt;(CDB)" style="rounded=1;whiteSpace=wrap;html=1;shadow=0;labelBackgroundColor=none;strokeColor=none;strokeWidth=3;fillColor=#2F5B7C;fontFamily=Helvetica;fontSize=16;fontColor=#FFFFFF;align=center;fontStyle=1;spacing=5;arcSize=7;perimeterSpacing=2;" vertex="1" parent="OQ7BvtPJ9knDdihIJFCK-1814">
          <mxGeometry x="418.75" y="90" width="170" height="60" as="geometry" />
        </mxCell>
        <mxCell id="OQ7BvtPJ9knDdihIJFCK-1810" value="&lt;b&gt;TenantA&lt;/b&gt;" style="text;html=1;align=center;verticalAlign=middle;resizable=0;points=[];autosize=1;strokeColor=none;fillColor=none;" vertex="1" parent="OQ7BvtPJ9knDdihIJFCK-1814">
          <mxGeometry x="98.75" y="420" width="70" height="30" as="geometry" />
        </mxCell>
        <mxCell id="OQ7BvtPJ9knDdihIJFCK-1811" value="&lt;b&gt;TenantB&lt;/b&gt;" style="text;html=1;align=center;verticalAlign=middle;resizable=0;points=[];autosize=1;strokeColor=none;fillColor=none;" vertex="1" parent="OQ7BvtPJ9knDdihIJFCK-1814">
          <mxGeometry x="283.75" y="420" width="70" height="30" as="geometry" />
        </mxCell>
        <mxCell id="OQ7BvtPJ9knDdihIJFCK-1812" value="&lt;b&gt;TenantC&lt;/b&gt;" style="text;html=1;align=center;verticalAlign=middle;resizable=0;points=[];autosize=1;strokeColor=none;fillColor=none;" vertex="1" parent="OQ7BvtPJ9knDdihIJFCK-1814">
          <mxGeometry x="463.75" y="420" width="70" height="30" as="geometry" />
        </mxCell>
      </root>
    </mxGraphModel>
  </diagram>
</mxfile>
